<svg  xmlns="http://www.w3.org/2000/svg" >
    <g id="log_out">
        <path fill="currentColor" id="Vector" d="M7 6C7.26521 6 7.51958 5.89464 7.70711 5.70711C7.89464 5.51957 8 5.26522 8 5C8 4.73478 7.89464 4.48043 7.70711 4.29289C7.51958 4.10536 7.26521 4 7 4L5 4C4.73479 4 4.48042 4.10536 4.29289 4.29289C4.10536 4.48043 4 4.73478 4 5L4 19C4 19.2652 4.10536 19.5196 4.29289 19.7071C4.48042 19.8946 4.73479 20 5 20L7 20C7.26521 20 7.51958 19.8946 7.70711 19.7071C7.89464 19.5196 8 19.2652 8 19C8 18.7348 7.89464 18.4804 7.70711 18.2929C7.51958 18.1054 7.26521 18 7 18L6 18L6 6L7 6Z"  fill-opacity="1.000000" fill-rule="nonzero"/>
        <path fill="currentColor" id="Vector" d="M20.82 11.42L18 7.42C17.8471 7.20441 17.615 7.05814 17.3545 7.01317C17.0941 6.96819 16.8264 7.02817 16.61 7.18C16.5018 7.25578 16.4098 7.35224 16.3391 7.4638C16.2684 7.57536 16.2206 7.69982 16.1982 7.82998C16.1759 7.96014 16.1796 8.09344 16.2091 8.22217C16.2386 8.3509 16.2933 8.47252 16.37 8.58L18.09 11L10 11C9.73479 11 9.48042 11.1054 9.29289 11.2929C9.10536 11.4804 9 11.7348 9 12C9 12.2652 9.10536 12.5196 9.29289 12.7071C9.48042 12.8946 9.73479 13 10 13L18 13L16.2 15.4C16.1212 15.5051 16.0639 15.6246 16.0313 15.7518C15.9987 15.879 15.9915 16.0114 16.0101 16.1414C16.0286 16.2714 16.0726 16.3965 16.1395 16.5095C16.2064 16.6225 16.2949 16.7212 16.4 16.8C16.5731 16.9298 16.7836 17 17 17C17.1552 17 17.3084 16.9639 17.4472 16.8944C17.5861 16.825 17.7068 16.7242 17.8 16.6L20.8 12.6C20.9281 12.4309 20.999 12.2254 21.0026 12.0133C21.0062 11.8011 20.9423 11.5934 20.82 11.42Z"  fill-opacity="1.000000" fill-rule="nonzero"/>
    </g>

    <g id="home">
        <path fill="currentColor" id="Vector" d="M10 14L14 14L14 21L10 21L10 14Z" fill-opacity="1.000000" fill-rule="evenodd"/>
        <path fill="currentColor" id="Vector" d="M20.42 10.18L12.71 2.29999C12.617 2.20627 12.5064 2.13187 12.3846 2.0811C12.2627 2.03033 12.132 2.0042 12 2.0042C11.868 2.0042 11.7373 2.03033 11.6154 2.0811C11.4936 2.13187 11.3829 2.20627 11.29 2.29999L3.57999 10.19C3.39343 10.3781 3.24609 10.6013 3.14651 10.8468C3.04695 11.0923 2.99715 11.3551 3 11.62L3 20C2.99922 20.5119 3.19476 21.0046 3.54637 21.3767C3.89796 21.7488 4.37886 21.9718 4.89 22L8 22L8 13C8 12.7348 8.10535 12.4804 8.29289 12.2929C8.48042 12.1053 8.73477 12 9 12L15 12C15.2652 12 15.5196 12.1053 15.7071 12.2929C15.8946 12.4804 16 12.7348 16 13L16 22L19.11 22C19.6211 21.9718 20.102 21.7488 20.4536 21.3767C20.8052 21.0046 21.0008 20.5119 21 20L21 11.62C21.0008 11.0829 20.7928 10.5666 20.42 10.18Z" fill-opacity="1.000000" fill-rule="nonzero"/>
    </g>
    <g id="home_outline">
        <g opacity="0.000000">
            <path fill="currentColor" id="Vector" d="M0 0L24 0L24 24L0 24L0 0Z"  fill-opacity="1.000000" fill-rule="evenodd"/>
        </g>
        <path fill="currentColor" id="Vector" d="M20.42 10.18L12.71 2.29999C12.617 2.20627 12.5064 2.13187 12.3846 2.0811C12.2627 2.03033 12.132 2.0042 12 2.0042C11.868 2.0042 11.7373 2.03033 11.6154 2.0811C11.4936 2.13187 11.3829 2.20627 11.29 2.29999L3.57999 10.19C3.39343 10.3781 3.24609 10.6013 3.14651 10.8468C3.04695 11.0923 2.99715 11.3551 3 11.62L3 20C2.99922 20.5119 3.19476 21.0046 3.54637 21.3767C3.89796 21.7488 4.37886 21.9718 4.89 22L19.11 22C19.6211 21.9718 20.102 21.7488 20.4536 21.3767C20.8052 21.0046 21.0008 20.5119 21 20L21 11.62C21.0008 11.0829 20.7928 10.5666 20.42 10.18ZM10 20L10 14L14 14L14 20L10 20ZM19 20L16 20L16 13C16 12.7348 15.8946 12.4804 15.7071 12.2929C15.5196 12.1053 15.2652 12 15 12L9 12C8.73477 12 8.48042 12.1053 8.29289 12.2929C8.10535 12.4804 8 12.7348 8 13L8 20L5 20L5 11.58L12 4.42999L19 11.62L19 20Z" fill-opacity="1.000000" fill-rule="nonzero"/>
    </g>

    <g id="search">
        <g opacity="0.000000">
            <path fill="currentColor" id="Vector" d="M0 0L24 0L24 24L0 24L0 0Z"  fill-opacity="1.000000" fill-rule="evenodd"/>
        </g>
        <path fill="currentColor" id="Vector" d="M20.71 19.29L17.31 15.9C18.407 14.5025 19.0022 12.7767 19 11C19 9.41775 18.5308 7.87103 17.6518 6.55544C16.7727 5.23985 15.5233 4.21447 14.0615 3.60897C12.5997 3.00347 10.9911 2.84504 9.43928 3.15372C7.88743 3.4624 6.46197 4.22433 5.34315 5.34315C4.22433 6.46197 3.4624 7.88743 3.15372 9.43928C2.84504 10.9911 3.00347 12.5997 3.60897 14.0615C4.21447 15.5233 5.23985 16.7727 6.55544 17.6518C7.87103 18.5308 9.41776 19 11 19C12.7767 19.0022 14.5025 18.407 15.9 17.31L19.29 20.71C19.383 20.8037 19.4936 20.8781 19.6154 20.9289C19.7373 20.9797 19.868 21.0058 20 21.0058C20.132 21.0058 20.2627 20.9797 20.3846 20.9289C20.5064 20.8781 20.617 20.8037 20.71 20.71C20.8037 20.617 20.8781 20.5064 20.9289 20.3846C20.9797 20.2627 21.0058 20.132 21.0058 20C21.0058 19.868 20.9797 19.7373 20.9289 19.6154C20.8781 19.4936 20.8037 19.383 20.71 19.29ZM5 11C5 9.81332 5.3519 8.65328 6.01118 7.66658C6.67048 6.67989 7.60755 5.91085 8.7039 5.45673C9.80026 5.0026 11.0067 4.88378 12.1705 5.11529C13.3344 5.3468 14.4035 5.91825 15.2426 6.75736C16.0818 7.59648 16.6532 8.66558 16.8847 9.82946C17.1162 10.9933 16.9974 12.1997 16.5433 13.2961C16.0892 14.3925 15.3201 15.3295 14.3334 15.9888C13.3467 16.6481 12.1867 17 11 17C9.40871 17 7.88258 16.3679 6.75736 15.2426C5.63214 14.1174 5 12.5913 5 11Z" fill-opacity="1.000000" fill-rule="nonzero"/>
    </g>

    <g id="eye">
        <g opacity="0.000000">
            <path fill="currentColor" id="Vector" d="M0 0L24 0L24 24L0 24L0 0Z"  fill-opacity="1.000000" fill-rule="evenodd"/>
        </g>
        <path fill="currentColor" id="Vector" d="M13.5 12C13.5 12.8284 12.8284 13.5 12 13.5C11.1716 13.5 10.5 12.8284 10.5 12C10.5 11.1716 11.1716 10.5 12 10.5C12.8284 10.5 13.5 11.1716 13.5 12Z" fill-opacity="1.000000" fill-rule="evenodd"/>
        <path fill="currentColor" id="Vector" d="M21.87 11.5C21.23 10.39 17.71 4.81999 11.73 5C6.2 5.14 3.00001 10 2.13 11.5C2.04224 11.652 1.99603 11.8245 1.99603 12C1.99603 12.1755 2.04224 12.348 2.13 12.5C2.76001 13.59 6.13 19 12.02 19L12.27 19C17.8 18.86 21.01 14 21.87 12.5C21.9578 12.348 22.004 12.1755 22.004 12C22.004 11.8245 21.9578 11.652 21.87 11.5ZM12 15.5C11.3078 15.5 10.6311 15.2947 10.0555 14.9101C9.47994 14.5256 9.03133 13.9789 8.76643 13.3394C8.50152 12.6998 8.43221 11.9961 8.56726 11.3172C8.70231 10.6382 9.03565 10.0146 9.52513 9.52512C10.0146 9.03563 10.6383 8.70229 11.3172 8.56725C11.9961 8.43219 12.6999 8.50151 13.3394 8.76642C13.9789 9.03133 14.5256 9.47992 14.9101 10.0555C15.2947 10.6311 15.5 11.3078 15.5 12C15.5 12.9283 15.1313 13.8185 14.4749 14.4749C13.8185 15.1312 12.9283 15.5 12 15.5Z" fill-opacity="1.000000" fill-rule="nonzero"/>
    </g>
    <g id="eye_outline">
        <g opacity="0.000000">
            <path fill="currentColor" id="Vector" d="M0 0L24 0L24 24L0 24L0 0Z"  fill-opacity="1.000000" fill-rule="evenodd"/>
        </g>
        <path fill="currentColor" id="Vector" d="M21.87 11.5C21.23 10.39 17.71 4.81999 11.73 5C6.20001 5.14 3.00001 10 2.13001 11.5C2.04224 11.652 1.99603 11.8245 1.99603 12C1.99603 12.1755 2.04224 12.348 2.13001 12.5C2.76001 13.59 6.13001 19 12.02 19L12.27 19C17.8 18.86 21.01 14 21.87 12.5C21.9578 12.348 22.004 12.1755 22.004 12C22.004 11.8245 21.9578 11.652 21.87 11.5ZM12.22 17C7.91001 17.1 5.10001 13.41 4.22001 12C5.22001 10.39 7.83001 7.09999 11.83 7C16.12 6.89 18.94 10.59 19.83 12C18.8 13.61 16.22 16.9 12.22 17Z"  fill-opacity="1.000000" fill-rule="nonzero"/>
        <path fill="currentColor" id="Vector" d="M12 8.5C11.3078 8.5 10.6311 8.70528 10.0555 9.08986C9.47993 9.47444 9.03133 10.0211 8.76642 10.6606C8.50152 11.3002 8.43221 12.0039 8.56725 12.6828C8.7023 13.3618 9.03564 13.9854 9.52513 14.4749C10.0146 14.9644 10.6383 15.2977 11.3172 15.4328C11.9961 15.5678 12.6999 15.4985 13.3394 15.2336C13.9789 14.9687 14.5256 14.5201 14.9101 13.9445C15.2947 13.3689 15.5 12.6922 15.5 12C15.5 11.0717 15.1313 10.1815 14.4749 9.52513C13.8185 8.86874 12.9283 8.5 12 8.5ZM12 13.5C11.7033 13.5 11.4133 13.412 11.1666 13.2472C10.92 13.0824 10.7277 12.8481 10.6142 12.574C10.5007 12.2999 10.4709 11.9983 10.5288 11.7074C10.5867 11.4164 10.7296 11.1491 10.9393 10.9393C11.1491 10.7296 11.4164 10.5867 11.7074 10.5288C11.9983 10.4709 12.2999 10.5007 12.574 10.6142C12.8481 10.7277 13.0824 10.92 13.2472 11.1666C13.412 11.4133 13.5 11.7033 13.5 12C13.5 12.3978 13.342 12.7794 13.0607 13.0607C12.7794 13.342 12.3978 13.5 12 13.5Z"  fill-opacity="1.000000" fill-rule="nonzero"/>
    </g>

    <g id="eye_off">
        <g opacity="0.000000">
            <path fill="currentColor" id="Vector" d="M0 0L24 0L24 24L0 24L0 0Z"  fill-opacity="1.000000" fill-rule="evenodd"/>
        </g>
        <path fill="currentColor" id="Vector" d="M13.5 12C13.5 12.8284 12.8284 13.5 12 13.5C11.1716 13.5 10.5 12.8284 10.5 12C10.5 11.1716 11.1716 10.5 12 10.5C12.8284 10.5 13.5 11.1716 13.5 12Z" fill-opacity="1.000000" fill-rule="evenodd"/>
        <path fill="currentColor" id="Vector" d="M15.29 18.12L14 16.78L13.93 16.71L12.66 15.44C12.4585 15.4753 12.2546 15.4954 12.05 15.5C11.5862 15.5066 11.1257 15.421 10.6953 15.2481C10.2648 15.0751 9.87307 14.8184 9.54275 14.4927C9.21243 14.1671 8.95014 13.779 8.77113 13.351C8.59212 12.9231 8.49996 12.4639 8.50001 12C8.50465 11.7954 8.5247 11.5915 8.56001 11.39L6.56001 9.39L5.00001 7.87C3.87133 8.93347 2.90442 10.1564 2.13 11.5C2.04224 11.652 1.99603 11.8245 1.99603 12C1.99603 12.1755 2.04224 12.348 2.13 12.5C2.76001 13.59 6.13 19 12.02 19L12.27 19C13.3776 18.9671 14.4708 18.7404 15.5 18.33L15.29 18.12Z"  fill-opacity="1.000000" fill-rule="nonzero"/>
        <path fill="currentColor" id="Vector" d="M8.59 5.75999L11.39 8.56C11.5915 8.52469 11.7954 8.50464 12 8.5C12.9283 8.5 13.8185 8.86874 14.4749 9.52512C15.1312 10.1815 15.5 11.0717 15.5 12C15.4954 12.2045 15.4753 12.4085 15.44 12.61L18.12 15.29L18.96 16.13C20.1028 15.0693 21.0834 13.8462 21.87 12.5C21.9578 12.348 22.004 12.1755 22.004 12C22.004 11.8245 21.9578 11.652 21.87 11.5C21.23 10.39 17.71 4.81999 11.73 5C10.6225 5.03285 9.52924 5.25961 8.5 5.67L8.59 5.75999Z"  fill-opacity="1.000000" fill-rule="nonzero"/>
        <path fill="currentColor" id="Vector" d="M20.71 19.29L19.41 18L17.41 16L7.89 6.47L6.42001 5L4.71 3.29001C4.61676 3.19676 4.50607 3.1228 4.38425 3.07234C4.26243 3.02188 4.13186 2.99591 4 2.99591C3.86814 2.99591 3.73757 3.02188 3.61575 3.07234C3.49393 3.1228 3.38324 3.19676 3.29 3.29001C3.1017 3.4783 2.99591 3.7337 2.99591 4C2.99591 4.2663 3.1017 4.5217 3.29 4.71001L5.53 7L7.28 8.7L14.59 16L14.66 16.07L16 17.41L16.59 18L19.29 20.71C19.383 20.8037 19.4936 20.8781 19.6154 20.9289C19.7373 20.9797 19.868 21.0058 20 21.0058C20.132 21.0058 20.2627 20.9797 20.3846 20.9289C20.5064 20.8781 20.617 20.8037 20.71 20.71C20.8037 20.617 20.8781 20.5064 20.9289 20.3846C20.9797 20.2627 21.0058 20.132 21.0058 20C21.0058 19.868 20.9797 19.7373 20.9289 19.6154C20.8781 19.4936 20.8037 19.383 20.71 19.29Z"  fill-opacity="1.000000" fill-rule="nonzero"/>
    </g>
    <g id="eye_off_outline">
        <g opacity="0.000000">
            <path fill="currentColor" id="Vector" d="M0 0L24 0L24 24L0 24L0 0Z"  fill-opacity="1.000000" fill-rule="evenodd"/>
        </g>
        <path fill="currentColor" id="Vector" d="M4.71 3.29001C4.61676 3.19676 4.50607 3.1228 4.38425 3.07234C4.26243 3.02188 4.13186 2.99591 4 2.99591C3.86814 2.99591 3.73758 3.02188 3.61575 3.07234C3.49393 3.1228 3.38324 3.19676 3.29 3.29001C3.1017 3.4783 2.99591 3.7337 2.99591 4C2.99591 4.2663 3.1017 4.5217 3.29 4.71001L8.92 10.34C8.5638 11.0026 8.43059 11.7624 8.54009 12.5067C8.64959 13.2509 8.99599 13.9401 9.52794 14.4721C10.0599 15.004 10.7491 15.3504 11.4934 15.4599C12.2376 15.5694 12.9974 15.4362 13.66 15.08L19.29 20.71C19.383 20.8037 19.4936 20.8781 19.6154 20.9289C19.7373 20.9797 19.868 21.0058 20 21.0058C20.132 21.0058 20.2627 20.9797 20.3846 20.9289C20.5064 20.8781 20.617 20.8037 20.71 20.71C20.8037 20.617 20.8781 20.5064 20.9289 20.3846C20.9797 20.2627 21.0058 20.132 21.0058 20C21.0058 19.868 20.9797 19.7373 20.9289 19.6154C20.8781 19.4936 20.8037 19.383 20.71 19.29L4.71 3.29001ZM12 13.5C11.6022 13.5 11.2206 13.342 10.9393 13.0607C10.658 12.7794 10.5 12.3978 10.5 12L10.5 11.93L12.06 13.49L12 13.5Z"  fill-opacity="1.000000" fill-rule="nonzero"/>
        <path fill="currentColor" id="Vector" d="M12.22 17C7.92001 17.1 5.10001 13.41 4.22001 12C4.84648 11.0007 5.59937 10.0865 6.46001 9.28L5.00001 7.87C3.87133 8.93347 2.90442 10.1564 2.13001 11.5C2.04224 11.652 1.99603 11.8245 1.99603 12C1.99603 12.1755 2.04224 12.348 2.13001 12.5C2.76001 13.59 6.13001 19 12.02 19L12.27 19C13.3776 18.9671 14.4708 18.7404 15.5 18.33L13.92 16.75C13.3644 16.8962 12.7942 16.98 12.22 17Z"  fill-opacity="1.000000" fill-rule="nonzero"/>
        <path fill="currentColor" id="Vector" d="M21.87 11.5C21.23 10.39 17.7 4.81999 11.73 5C10.6225 5.03285 9.52924 5.25961 8.5 5.67L10.08 7.25C10.6356 7.10382 11.2058 7.01997 11.78 7C16.07 6.89 18.89 10.59 19.78 12C19.1381 13.0023 18.3682 13.9167 17.49 14.72L19 16.13C20.1428 15.0693 21.1234 13.8462 21.91 12.5C21.9918 12.3445 22.0311 12.1702 22.0241 11.9946C22.0171 11.8191 21.9639 11.6485 21.87 11.5Z"  fill-opacity="1.000000" fill-rule="nonzero"/>
    </g>
</svg>