<svg xmlns="http://www.w3.org/2000/svg">
    <g id="log_out">
        <path fill="currentColor" id="Vector"
              d="M7 6C7.26521 6 7.51958 5.89464 7.70711 5.70711C7.89464 5.51957 8 5.26522 8 5C8 4.73478 7.89464 4.48043 7.70711 4.29289C7.51958 4.10536 7.26521 4 7 4L5 4C4.73479 4 4.48042 4.10536 4.29289 4.29289C4.10536 4.48043 4 4.73478 4 5L4 19C4 19.2652 4.10536 19.5196 4.29289 19.7071C4.48042 19.8946 4.73479 20 5 20L7 20C7.26521 20 7.51958 19.8946 7.70711 19.7071C7.89464 19.5196 8 19.2652 8 19C8 18.7348 7.89464 18.4804 7.70711 18.2929C7.51958 18.1054 7.26521 18 7 18L6 18L6 6L7 6Z"
              fill-opacity="1.000000" fill-rule="nonzero"/>
        <path fill="currentColor" id="Vector"
              d="M20.82 11.42L18 7.42C17.8471 7.20441 17.615 7.05814 17.3545 7.01317C17.0941 6.96819 16.8264 7.02817 16.61 7.18C16.5018 7.25578 16.4098 7.35224 16.3391 7.4638C16.2684 7.57536 16.2206 7.69982 16.1982 7.82998C16.1759 7.96014 16.1796 8.09344 16.2091 8.22217C16.2386 8.3509 16.2933 8.47252 16.37 8.58L18.09 11L10 11C9.73479 11 9.48042 11.1054 9.29289 11.2929C9.10536 11.4804 9 11.7348 9 12C9 12.2652 9.10536 12.5196 9.29289 12.7071C9.48042 12.8946 9.73479 13 10 13L18 13L16.2 15.4C16.1212 15.5051 16.0639 15.6246 16.0313 15.7518C15.9987 15.879 15.9915 16.0114 16.0101 16.1414C16.0286 16.2714 16.0726 16.3965 16.1395 16.5095C16.2064 16.6225 16.2949 16.7212 16.4 16.8C16.5731 16.9298 16.7836 17 17 17C17.1552 17 17.3084 16.9639 17.4472 16.8944C17.5861 16.825 17.7068 16.7242 17.8 16.6L20.8 12.6C20.9281 12.4309 20.999 12.2254 21.0026 12.0133C21.0062 11.8011 20.9423 11.5934 20.82 11.42Z"
              fill-opacity="1.000000" fill-rule="nonzero"/>
    </g>

    <g id="home">
        <path fill="currentColor" id="Vector" d="M10 14L14 14L14 21L10 21L10 14Z" fill-opacity="1.000000"
              fill-rule="evenodd"/>
        <path fill="currentColor" id="Vector"
              d="M20.42 10.18L12.71 2.29999C12.617 2.20627 12.5064 2.13187 12.3846 2.0811C12.2627 2.03033 12.132 2.0042 12 2.0042C11.868 2.0042 11.7373 2.03033 11.6154 2.0811C11.4936 2.13187 11.3829 2.20627 11.29 2.29999L3.57999 10.19C3.39343 10.3781 3.24609 10.6013 3.14651 10.8468C3.04695 11.0923 2.99715 11.3551 3 11.62L3 20C2.99922 20.5119 3.19476 21.0046 3.54637 21.3767C3.89796 21.7488 4.37886 21.9718 4.89 22L8 22L8 13C8 12.7348 8.10535 12.4804 8.29289 12.2929C8.48042 12.1053 8.73477 12 9 12L15 12C15.2652 12 15.5196 12.1053 15.7071 12.2929C15.8946 12.4804 16 12.7348 16 13L16 22L19.11 22C19.6211 21.9718 20.102 21.7488 20.4536 21.3767C20.8052 21.0046 21.0008 20.5119 21 20L21 11.62C21.0008 11.0829 20.7928 10.5666 20.42 10.18Z"
              fill-opacity="1.000000" fill-rule="nonzero"/>
    </g>
    <g id="home_outline">
        <path fill="currentColor" id="Vector"
              d="M20.42 10.18L12.71 2.29999C12.617 2.20627 12.5064 2.13187 12.3846 2.0811C12.2627 2.03033 12.132 2.0042 12 2.0042C11.868 2.0042 11.7373 2.03033 11.6154 2.0811C11.4936 2.13187 11.3829 2.20627 11.29 2.29999L3.57999 10.19C3.39343 10.3781 3.24609 10.6013 3.14651 10.8468C3.04695 11.0923 2.99715 11.3551 3 11.62L3 20C2.99922 20.5119 3.19476 21.0046 3.54637 21.3767C3.89796 21.7488 4.37886 21.9718 4.89 22L19.11 22C19.6211 21.9718 20.102 21.7488 20.4536 21.3767C20.8052 21.0046 21.0008 20.5119 21 20L21 11.62C21.0008 11.0829 20.7928 10.5666 20.42 10.18ZM10 20L10 14L14 14L14 20L10 20ZM19 20L16 20L16 13C16 12.7348 15.8946 12.4804 15.7071 12.2929C15.5196 12.1053 15.2652 12 15 12L9 12C8.73477 12 8.48042 12.1053 8.29289 12.2929C8.10535 12.4804 8 12.7348 8 13L8 20L5 20L5 11.58L12 4.42999L19 11.62L19 20Z"
              fill-opacity="1.000000" fill-rule="nonzero"/>
    </g>

    <g id="search">
        <path fill="currentColor" id="Vector"
              d="M20.71 19.29L17.31 15.9C18.407 14.5025 19.0022 12.7767 19 11C19 9.41775 18.5308 7.87103 17.6518 6.55544C16.7727 5.23985 15.5233 4.21447 14.0615 3.60897C12.5997 3.00347 10.9911 2.84504 9.43928 3.15372C7.88743 3.4624 6.46197 4.22433 5.34315 5.34315C4.22433 6.46197 3.4624 7.88743 3.15372 9.43928C2.84504 10.9911 3.00347 12.5997 3.60897 14.0615C4.21447 15.5233 5.23985 16.7727 6.55544 17.6518C7.87103 18.5308 9.41776 19 11 19C12.7767 19.0022 14.5025 18.407 15.9 17.31L19.29 20.71C19.383 20.8037 19.4936 20.8781 19.6154 20.9289C19.7373 20.9797 19.868 21.0058 20 21.0058C20.132 21.0058 20.2627 20.9797 20.3846 20.9289C20.5064 20.8781 20.617 20.8037 20.71 20.71C20.8037 20.617 20.8781 20.5064 20.9289 20.3846C20.9797 20.2627 21.0058 20.132 21.0058 20C21.0058 19.868 20.9797 19.7373 20.9289 19.6154C20.8781 19.4936 20.8037 19.383 20.71 19.29ZM5 11C5 9.81332 5.3519 8.65328 6.01118 7.66658C6.67048 6.67989 7.60755 5.91085 8.7039 5.45673C9.80026 5.0026 11.0067 4.88378 12.1705 5.11529C13.3344 5.3468 14.4035 5.91825 15.2426 6.75736C16.0818 7.59648 16.6532 8.66558 16.8847 9.82946C17.1162 10.9933 16.9974 12.1997 16.5433 13.2961C16.0892 14.3925 15.3201 15.3295 14.3334 15.9888C13.3467 16.6481 12.1867 17 11 17C9.40871 17 7.88258 16.3679 6.75736 15.2426C5.63214 14.1174 5 12.5913 5 11Z"
              fill-opacity="1.000000" fill-rule="nonzero"/>
    </g>

    <g id="eye">
        <path fill="currentColor" id="Vector"
              d="M13.5 12C13.5 12.8284 12.8284 13.5 12 13.5C11.1716 13.5 10.5 12.8284 10.5 12C10.5 11.1716 11.1716 10.5 12 10.5C12.8284 10.5 13.5 11.1716 13.5 12Z"
              fill-opacity="1.000000" fill-rule="evenodd"/>
        <path fill="currentColor" id="Vector"
              d="M21.87 11.5C21.23 10.39 17.71 4.81999 11.73 5C6.2 5.14 3.00001 10 2.13 11.5C2.04224 11.652 1.99603 11.8245 1.99603 12C1.99603 12.1755 2.04224 12.348 2.13 12.5C2.76001 13.59 6.13 19 12.02 19L12.27 19C17.8 18.86 21.01 14 21.87 12.5C21.9578 12.348 22.004 12.1755 22.004 12C22.004 11.8245 21.9578 11.652 21.87 11.5ZM12 15.5C11.3078 15.5 10.6311 15.2947 10.0555 14.9101C9.47994 14.5256 9.03133 13.9789 8.76643 13.3394C8.50152 12.6998 8.43221 11.9961 8.56726 11.3172C8.70231 10.6382 9.03565 10.0146 9.52513 9.52512C10.0146 9.03563 10.6383 8.70229 11.3172 8.56725C11.9961 8.43219 12.6999 8.50151 13.3394 8.76642C13.9789 9.03133 14.5256 9.47992 14.9101 10.0555C15.2947 10.6311 15.5 11.3078 15.5 12C15.5 12.9283 15.1313 13.8185 14.4749 14.4749C13.8185 15.1312 12.9283 15.5 12 15.5Z"
              fill-opacity="1.000000" fill-rule="nonzero"/>
    </g>
    <g id="eye_outline">
        <path fill="currentColor" id="Vector"
              d="M21.87 11.5C21.23 10.39 17.71 4.81999 11.73 5C6.20001 5.14 3.00001 10 2.13001 11.5C2.04224 11.652 1.99603 11.8245 1.99603 12C1.99603 12.1755 2.04224 12.348 2.13001 12.5C2.76001 13.59 6.13001 19 12.02 19L12.27 19C17.8 18.86 21.01 14 21.87 12.5C21.9578 12.348 22.004 12.1755 22.004 12C22.004 11.8245 21.9578 11.652 21.87 11.5ZM12.22 17C7.91001 17.1 5.10001 13.41 4.22001 12C5.22001 10.39 7.83001 7.09999 11.83 7C16.12 6.89 18.94 10.59 19.83 12C18.8 13.61 16.22 16.9 12.22 17Z"
              fill-opacity="1.000000" fill-rule="nonzero"/>
        <path fill="currentColor" id="Vector"
              d="M12 8.5C11.3078 8.5 10.6311 8.70528 10.0555 9.08986C9.47993 9.47444 9.03133 10.0211 8.76642 10.6606C8.50152 11.3002 8.43221 12.0039 8.56725 12.6828C8.7023 13.3618 9.03564 13.9854 9.52513 14.4749C10.0146 14.9644 10.6383 15.2977 11.3172 15.4328C11.9961 15.5678 12.6999 15.4985 13.3394 15.2336C13.9789 14.9687 14.5256 14.5201 14.9101 13.9445C15.2947 13.3689 15.5 12.6922 15.5 12C15.5 11.0717 15.1313 10.1815 14.4749 9.52513C13.8185 8.86874 12.9283 8.5 12 8.5ZM12 13.5C11.7033 13.5 11.4133 13.412 11.1666 13.2472C10.92 13.0824 10.7277 12.8481 10.6142 12.574C10.5007 12.2999 10.4709 11.9983 10.5288 11.7074C10.5867 11.4164 10.7296 11.1491 10.9393 10.9393C11.1491 10.7296 11.4164 10.5867 11.7074 10.5288C11.9983 10.4709 12.2999 10.5007 12.574 10.6142C12.8481 10.7277 13.0824 10.92 13.2472 11.1666C13.412 11.4133 13.5 11.7033 13.5 12C13.5 12.3978 13.342 12.7794 13.0607 13.0607C12.7794 13.342 12.3978 13.5 12 13.5Z"
              fill-opacity="1.000000" fill-rule="nonzero"/>
    </g>

    <g id="eye_off">
        <path fill="currentColor" id="Vector"
              d="M13.5 12C13.5 12.8284 12.8284 13.5 12 13.5C11.1716 13.5 10.5 12.8284 10.5 12C10.5 11.1716 11.1716 10.5 12 10.5C12.8284 10.5 13.5 11.1716 13.5 12Z"
              fill-opacity="1.000000" fill-rule="evenodd"/>
        <path fill="currentColor" id="Vector"
              d="M15.29 18.12L14 16.78L13.93 16.71L12.66 15.44C12.4585 15.4753 12.2546 15.4954 12.05 15.5C11.5862 15.5066 11.1257 15.421 10.6953 15.2481C10.2648 15.0751 9.87307 14.8184 9.54275 14.4927C9.21243 14.1671 8.95014 13.779 8.77113 13.351C8.59212 12.9231 8.49996 12.4639 8.50001 12C8.50465 11.7954 8.5247 11.5915 8.56001 11.39L6.56001 9.39L5.00001 7.87C3.87133 8.93347 2.90442 10.1564 2.13 11.5C2.04224 11.652 1.99603 11.8245 1.99603 12C1.99603 12.1755 2.04224 12.348 2.13 12.5C2.76001 13.59 6.13 19 12.02 19L12.27 19C13.3776 18.9671 14.4708 18.7404 15.5 18.33L15.29 18.12Z"
              fill-opacity="1.000000" fill-rule="nonzero"/>
        <path fill="currentColor" id="Vector"
              d="M8.59 5.75999L11.39 8.56C11.5915 8.52469 11.7954 8.50464 12 8.5C12.9283 8.5 13.8185 8.86874 14.4749 9.52512C15.1312 10.1815 15.5 11.0717 15.5 12C15.4954 12.2045 15.4753 12.4085 15.44 12.61L18.12 15.29L18.96 16.13C20.1028 15.0693 21.0834 13.8462 21.87 12.5C21.9578 12.348 22.004 12.1755 22.004 12C22.004 11.8245 21.9578 11.652 21.87 11.5C21.23 10.39 17.71 4.81999 11.73 5C10.6225 5.03285 9.52924 5.25961 8.5 5.67L8.59 5.75999Z"
              fill-opacity="1.000000" fill-rule="nonzero"/>
        <path fill="currentColor" id="Vector"
              d="M20.71 19.29L19.41 18L17.41 16L7.89 6.47L6.42001 5L4.71 3.29001C4.61676 3.19676 4.50607 3.1228 4.38425 3.07234C4.26243 3.02188 4.13186 2.99591 4 2.99591C3.86814 2.99591 3.73757 3.02188 3.61575 3.07234C3.49393 3.1228 3.38324 3.19676 3.29 3.29001C3.1017 3.4783 2.99591 3.7337 2.99591 4C2.99591 4.2663 3.1017 4.5217 3.29 4.71001L5.53 7L7.28 8.7L14.59 16L14.66 16.07L16 17.41L16.59 18L19.29 20.71C19.383 20.8037 19.4936 20.8781 19.6154 20.9289C19.7373 20.9797 19.868 21.0058 20 21.0058C20.132 21.0058 20.2627 20.9797 20.3846 20.9289C20.5064 20.8781 20.617 20.8037 20.71 20.71C20.8037 20.617 20.8781 20.5064 20.9289 20.3846C20.9797 20.2627 21.0058 20.132 21.0058 20C21.0058 19.868 20.9797 19.7373 20.9289 19.6154C20.8781 19.4936 20.8037 19.383 20.71 19.29Z"
              fill-opacity="1.000000" fill-rule="nonzero"/>
    </g>
    <g id="eye_off_outline">
        <path fill="currentColor" id="Vector"
              d="M4.71 3.29001C4.61676 3.19676 4.50607 3.1228 4.38425 3.07234C4.26243 3.02188 4.13186 2.99591 4 2.99591C3.86814 2.99591 3.73758 3.02188 3.61575 3.07234C3.49393 3.1228 3.38324 3.19676 3.29 3.29001C3.1017 3.4783 2.99591 3.7337 2.99591 4C2.99591 4.2663 3.1017 4.5217 3.29 4.71001L8.92 10.34C8.5638 11.0026 8.43059 11.7624 8.54009 12.5067C8.64959 13.2509 8.99599 13.9401 9.52794 14.4721C10.0599 15.004 10.7491 15.3504 11.4934 15.4599C12.2376 15.5694 12.9974 15.4362 13.66 15.08L19.29 20.71C19.383 20.8037 19.4936 20.8781 19.6154 20.9289C19.7373 20.9797 19.868 21.0058 20 21.0058C20.132 21.0058 20.2627 20.9797 20.3846 20.9289C20.5064 20.8781 20.617 20.8037 20.71 20.71C20.8037 20.617 20.8781 20.5064 20.9289 20.3846C20.9797 20.2627 21.0058 20.132 21.0058 20C21.0058 19.868 20.9797 19.7373 20.9289 19.6154C20.8781 19.4936 20.8037 19.383 20.71 19.29L4.71 3.29001ZM12 13.5C11.6022 13.5 11.2206 13.342 10.9393 13.0607C10.658 12.7794 10.5 12.3978 10.5 12L10.5 11.93L12.06 13.49L12 13.5Z"
              fill-opacity="1.000000" fill-rule="nonzero"/>
        <path fill="currentColor" id="Vector"
              d="M12.22 17C7.92001 17.1 5.10001 13.41 4.22001 12C4.84648 11.0007 5.59937 10.0865 6.46001 9.28L5.00001 7.87C3.87133 8.93347 2.90442 10.1564 2.13001 11.5C2.04224 11.652 1.99603 11.8245 1.99603 12C1.99603 12.1755 2.04224 12.348 2.13001 12.5C2.76001 13.59 6.13001 19 12.02 19L12.27 19C13.3776 18.9671 14.4708 18.7404 15.5 18.33L13.92 16.75C13.3644 16.8962 12.7942 16.98 12.22 17Z"
              fill-opacity="1.000000" fill-rule="nonzero"/>
        <path fill="currentColor" id="Vector"
              d="M21.87 11.5C21.23 10.39 17.7 4.81999 11.73 5C10.6225 5.03285 9.52924 5.25961 8.5 5.67L10.08 7.25C10.6356 7.10382 11.2058 7.01997 11.78 7C16.07 6.89 18.89 10.59 19.78 12C19.1381 13.0023 18.3682 13.9167 17.49 14.72L19 16.13C20.1428 15.0693 21.1234 13.8462 21.91 12.5C21.9918 12.3445 22.0311 12.1702 22.0241 11.9946C22.0171 11.8191 21.9639 11.6485 21.87 11.5Z"
              fill-opacity="1.000000" fill-rule="nonzero"/>
    </g>

    <g id="checkbox1">
        <path fill="currentColor"
              d="M16 0L2 0C0.890015 0 0 0.899902 0 2L0 16C0 17.1001 0.890015 18 2 18L16 18C17.11 18 18 17.1001 18 16L18 2C18 0.899902 17.11 0 16 0ZM7 14L2 9L3.40997 7.59009L7 11.1699L14.59 3.58008L16 5L7 14Z"
              fill-opacity="1.000000" fill-rule="nonzero"/>
    </g>
    <g id="checkbox_true">
        <path fill="currentColor" id="Vector"
              d="M19 3L5 3C3.89001 3 3 3.8999 3 5L3 19C3 20.1001 3.89001 21 5 21L19 21C20.11 21 21 20.1001 21 19L21 5C21 3.8999 20.11 3 19 3ZM10 17L5 12L6.40997 10.5901L10 14.1699L17.59 6.58008L19 8L10 17Z"
              fill-opacity="1.000000" fill-rule="nonzero"/>
    </g>
    <g id="checkbox_false">
        <path fill="currentColor" id="Vector"
              d="M19 5L19 19L5 19L5 5L19 5ZM19 3L5 3C3.89999 3 3 3.8999 3 5L3 19C3 20.1001 3.89999 21 5 21L19 21C20.1 21 21 20.1001 21 19L21 5C21 3.8999 20.1 3 19 3Z"
              fill-opacity="1.000000" fill-rule="nonzero"/>
    </g>

    <g id="edit">
        <path fill="currentColor" id="Vector"
              d="M19 20L5 20C4.73479 20 4.48042 20.1054 4.29289 20.2929C4.10536 20.4804 4 20.7348 4 21C4 21.2652 4.10536 21.5196 4.29289 21.7071C4.48042 21.8946 4.73479 22 5 22L19 22C19.2652 22 19.5196 21.8946 19.7071 21.7071C19.8946 21.5196 20 21.2652 20 21C20 20.7348 19.8946 20.4804 19.7071 20.2929C19.5196 20.1054 19.2652 20 19 20Z"
              fill-opacity="1.000000" fill-rule="nonzero"/>
        <path fill="currentColor" id="Vector"
              d="M4.99998 18L5.09 18L9.25999 17.62C9.71678 17.5745 10.144 17.3732 10.47 17.05L19.47 8.05C19.8193 7.68096 20.0081 7.1885 19.995 6.68053C19.9818 6.17256 19.7679 5.6905 19.4 5.34L16.66 2.6C16.3024 2.26409 15.8338 2.07135 15.3433 2.05845C14.8529 2.04554 14.3748 2.21336 14 2.52999L4.99998 11.53C4.67676 11.856 4.47549 12.2832 4.42999 12.74L3.99998 16.91C3.98653 17.0565 4.00552 17.2041 4.05565 17.3424C4.10577 17.4807 4.18579 17.6062 4.28999 17.71C4.38344 17.8027 4.49425 17.876 4.61609 17.9258C4.73792 17.9755 4.86838 18.0008 4.99998 18ZM15.27 4L18 6.73L16 8.68L13.32 6L15.27 4Z"
              fill-opacity="1.000000" fill-rule="nonzero"/>
    </g>
    <g id="edit_outline">
        <path fill="currentColor" id="Vector"
              d="M19 20L5 20C4.73479 20 4.48042 20.1054 4.29289 20.2929C4.10536 20.4804 4 20.7348 4 21C4 21.2652 4.10536 21.5196 4.29289 21.7071C4.48042 21.8946 4.73479 22 5 22L19 22C19.2652 22 19.5196 21.8946 19.7071 21.7071C19.8946 21.5196 20 21.2652 20 21C20 20.7348 19.8946 20.4804 19.7071 20.2929C19.5196 20.1054 19.2652 20 19 20Z"
              fill-opacity="1.000000" fill-rule="nonzero"/>
        <path fill="currentColor" id="Vector"
              d="M4.99998 18L5.09 18L9.25999 17.62C9.71678 17.5745 10.144 17.3732 10.47 17.05L19.47 8.05C19.8193 7.68096 20.0081 7.1885 19.995 6.68053C19.9818 6.17256 19.7679 5.6905 19.4 5.34L16.66 2.6C16.3024 2.26409 15.8338 2.07135 15.3433 2.05845C14.8529 2.04554 14.3748 2.21336 14 2.52999L4.99998 11.53C4.67676 11.856 4.47549 12.2832 4.42999 12.74L3.99998 16.91C3.98653 17.0565 4.00552 17.2041 4.05565 17.3424C4.10577 17.4807 4.18579 17.6062 4.28999 17.71C4.38344 17.8027 4.49425 17.876 4.61609 17.9258C4.73792 17.9755 4.86838 18.0008 4.99998 18ZM15.27 4L18 6.73L16 8.68L13.32 6L15.27 4ZM6.37 12.91L12 7.32L14.7 10.02L9.09999 15.62L6.09999 15.9L6.37 12.91Z"
              fill-opacity="1.000000" fill-rule="nonzero"/>
    </g>

    <g id="close">
        <path id="Vector"
              d="M13.41 12L17.71 7.71C17.8983 7.5217 18.0041 7.2663 18.0041 7C18.0041 6.7337 17.8983 6.47831 17.71 6.29C17.5217 6.1017 17.2663 5.99591 17 5.99591C16.7337 5.99591 16.4783 6.1017 16.29 6.29L12 10.59L7.71 6.29C7.5217 6.1017 7.2663 5.99591 7 5.99591C6.7337 5.99591 6.4783 6.1017 6.29 6.29C6.1017 6.47831 5.99591 6.7337 5.99591 7C5.99591 7.2663 6.1017 7.5217 6.29 7.71L10.59 12L6.29 16.29C6.19627 16.383 6.12188 16.4936 6.07111 16.6154C6.02034 16.7373 5.9942 16.868 5.9942 17C5.9942 17.132 6.02034 17.2627 6.07111 17.3846C6.12188 17.5064 6.19627 17.617 6.29 17.71C6.38296 17.8037 6.49356 17.8781 6.61543 17.9289C6.73728 17.9797 6.86799 18.0058 7 18.0058C7.13201 18.0058 7.26272 17.9797 7.38457 17.9289C7.50644 17.8781 7.61704 17.8037 7.71 17.71L12 13.41L16.29 17.71C16.383 17.8037 16.4936 17.8781 16.6154 17.9289C16.7373 17.9797 16.868 18.0058 17 18.0058C17.132 18.0058 17.2627 17.9797 17.3846 17.9289C17.5064 17.8781 17.617 17.8037 17.71 17.71C17.8037 17.617 17.8781 17.5064 17.9289 17.3846C17.9797 17.2627 18.0058 17.132 18.0058 17C18.0058 16.868 17.9797 16.7373 17.9289 16.6154C17.8781 16.4936 17.8037 16.383 17.71 16.29L13.41 12Z"
              fill="currentColor" fill-opacity="1.000000" fill-rule="nonzero"/>
    </g>

    <g id="arrow_up">
        <path id="Vector"
              d="M19.5416 14.5141C19.542 14.7478 19.4606 14.9742 19.3116 15.1541C19.2276 15.2554 19.1245 15.3391 19.0082 15.4005C18.8918 15.4618 18.7645 15.4996 18.6335 15.5117C18.5026 15.5238 18.3705 15.5099 18.2449 15.4708C18.1193 15.4318 18.0026 15.3683 17.9016 15.2841L12.5416 10.8041L7.17157 15.1241C7.06927 15.2072 6.95158 15.2692 6.82524 15.3067C6.6989 15.3441 6.56641 15.3562 6.43538 15.3423C6.30435 15.3283 6.17737 15.2886 6.06174 15.2254C5.94611 15.1623 5.84409 15.0769 5.76157 14.9741C5.67053 14.8707 5.60187 14.7495 5.55988 14.6182C5.51788 14.487 5.50348 14.3485 5.51756 14.2114C5.53165 14.0743 5.57391 13.9416 5.64172 13.8216C5.70952 13.7016 5.80139 13.5969 5.91156 13.5141L11.9116 8.68414C12.0905 8.53706 12.3149 8.45665 12.5466 8.45665C12.7782 8.45665 13.0026 8.53706 13.1816 8.68414L19.1816 13.6841C19.3026 13.7845 19.3983 13.9119 19.4608 14.0561C19.5233 14.2003 19.551 14.3572 19.5416 14.5141Z"
              fill="currentColor" fill-opacity="1.000000" fill-rule="nonzero"/>
    </g>
    <g id="arrow_down">
        <path id="Vector"
              d="M5.51414 9.45842C5.51369 9.22477 5.59506 8.99834 5.74414 8.81842C5.82809 8.71717 5.9312 8.63346 6.04755 8.57211C6.16389 8.51076 6.2912 8.47297 6.42216 8.46089C6.55315 8.44881 6.68523 8.46269 6.81082 8.50174C6.93643 8.54078 7.0531 8.60422 7.15414 8.68842L12.5141 13.1684L17.8841 8.84843C17.9864 8.76536 18.1041 8.70333 18.2305 8.6659C18.3568 8.62846 18.4893 8.61637 18.6203 8.63031C18.7514 8.64425 18.8783 8.68394 18.994 8.74712C19.1096 8.8103 19.2116 8.8957 19.2941 8.99842C19.3852 9.10189 19.4538 9.22306 19.4958 9.35432C19.5378 9.48558 19.5522 9.62411 19.5381 9.7612C19.5241 9.89829 19.4818 10.031 19.414 10.151C19.3462 10.271 19.2543 10.3756 19.1441 10.4584L13.1441 15.2884C12.9652 15.4355 12.7408 15.5159 12.5091 15.5159C12.2775 15.5159 12.0531 15.4355 11.8741 15.2884L5.87415 10.2884C5.75313 10.1881 5.65746 10.0607 5.59491 9.91647C5.53236 9.77225 5.5047 9.61533 5.51414 9.45842Z"
              fill="currentColor" fill-opacity="1.000000" fill-rule="nonzero"/>
    </g>
    <g id="arrow_back">
        <path id="Vector"
              d="M13.83 19C13.6806 19.0005 13.533 18.9675 13.398 18.9035C13.263 18.8395 13.1441 18.746 13.05 18.63L8.22 12.63C8.07291 12.4511 7.99251 12.2266 7.99251 11.995C7.99251 11.7634 8.07291 11.5389 8.22 11.36L13.22 5.36C13.3897 5.15578 13.6336 5.02736 13.8981 5.00298C14.1625 4.97861 14.4258 5.06026 14.63 5.23C14.8342 5.39973 14.9626 5.64365 14.987 5.90808C15.0114 6.1725 14.9297 6.43579 14.76 6.64L10.29 12L14.61 17.36C14.7323 17.5068 14.81 17.6855 14.8338 17.8751C14.8577 18.0646 14.8268 18.257 14.7447 18.4296C14.6627 18.6021 14.5329 18.7475 14.3708 18.8486C14.2087 18.9497 14.021 19.0022 13.83 19Z"
              fill="currentColor" fill-opacity="1.000000" fill-rule="nonzero"/>
    </g>
    <g id="arrow_forward">
        <path id="Vector"
              d="M10 19C9.76635 19.0005 9.53992 18.9191 9.36 18.77C9.25875 18.6861 9.17505 18.5829 9.11369 18.4666C9.05234 18.3503 9.01455 18.2229 9.00247 18.092C8.99039 17.961 9.00428 17.8289 9.04332 17.7033C9.08236 17.5777 9.1458 17.461 9.23 17.36L13.71 12L9.39001 6.63C9.30694 6.52771 9.24491 6.41002 9.20748 6.28368C9.17004 6.15733 9.15795 6.02484 9.17189 5.89381C9.18583 5.76279 9.22552 5.6358 9.2887 5.52017C9.35188 5.40454 9.43728 5.30252 9.54 5.22C9.64347 5.12897 9.76464 5.0603 9.8959 5.01831C10.0272 4.97632 10.1657 4.96191 10.3028 4.976C10.4399 4.99008 10.5726 5.03235 10.6926 5.10016C10.8125 5.16795 10.9172 5.25983 11 5.37L15.83 11.37C15.9771 11.5489 16.0575 11.7734 16.0575 12.005C16.0575 12.2366 15.9771 12.4611 15.83 12.64L10.83 18.64C10.7297 18.761 10.6023 18.8567 10.458 18.9192C10.3138 18.9818 10.1569 19.0095 10 19Z"
              fill="currentColor" fill-opacity="1.000000" fill-rule="nonzero"/>
    </g>
    <g id="arrow_back_outline">
        <path id="Vector"
              d="M19 11L7.14 11L10.77 6.64C10.9397 6.43579 11.0214 6.1725 10.997 5.90808C10.9726 5.64365 10.8442 5.39973 10.64 5.23C10.4358 5.06026 10.1725 4.97861 9.90807 5.00298C9.64365 5.02736 9.39973 5.15578 9.23 5.36L4.23 11.36C4.19636 11.4077 4.16628 11.4579 4.14 11.51C4.14 11.56 4.14 11.59 4.07 11.64C4.02467 11.7547 4.00094 11.8767 4 12C4.00094 12.1233 4.02467 12.2453 4.07 12.36C4.07 12.41 4.07 12.44 4.14 12.49C4.16628 12.5421 4.19636 12.5923 4.23 12.64L9.23 18.64C9.32402 18.7529 9.44176 18.8437 9.57484 18.9059C9.70793 18.9681 9.85309 19.0002 10 19C10.2337 19.0005 10.4601 18.9191 10.64 18.77C10.7413 18.6861 10.825 18.5829 10.8863 18.4666C10.9477 18.3503 10.9855 18.2229 10.9975 18.092C11.0096 17.961 10.9957 17.8289 10.9567 17.7033C10.9176 17.5777 10.8542 17.461 10.77 17.36L7.14 13L19 13C19.2652 13 19.5196 12.8946 19.7071 12.7071C19.8946 12.5196 20 12.2652 20 12C20 11.7348 19.8946 11.4804 19.7071 11.2929C19.5196 11.1054 19.2652 11 19 11Z"
              fill="currentColor" fill-opacity="1.000000" fill-rule="nonzero"/>
    </g>
    <g id="arrow_forward_outline">
        <path id="Vector"
              d="M5 13L16.86 13L13.23 17.36C13.146 17.4611 13.0826 17.5778 13.0437 17.7034C13.0047 17.829 12.9909 17.961 13.003 18.0919C13.0274 18.3564 13.1558 18.6003 13.36 18.77C13.5642 18.9397 13.8275 19.0214 14.0919 18.997C14.3564 18.9726 14.6003 18.8442 14.77 18.64L19.77 12.64C19.8036 12.5923 19.8337 12.5421 19.86 12.49C19.86 12.44 19.91 12.41 19.93 12.36C19.9753 12.2453 19.9991 12.1233 20 12C19.9991 11.8767 19.9753 11.7547 19.93 11.64C19.93 11.59 19.88 11.56 19.86 11.51C19.8337 11.4579 19.8036 11.4077 19.77 11.36L14.77 5.36C14.676 5.24712 14.5582 5.15634 14.4252 5.09412C14.2921 5.03189 14.1469 4.99976 14 5C13.7663 4.99954 13.5399 5.08092 13.36 5.23C13.2587 5.31395 13.175 5.41705 13.1137 5.5334C13.0523 5.64975 13.0145 5.77705 13.0025 5.90804C12.9904 6.039 13.0043 6.17108 13.0433 6.29668C13.0824 6.42229 13.1458 6.53896 13.23 6.64L16.86 11L5 11C4.73479 11 4.48043 11.1054 4.29289 11.2929C4.10535 11.4804 4 11.7348 4 12C4 12.2652 4.10535 12.5196 4.29289 12.7071C4.48043 12.8946 4.73479 13 5 13Z"
              fill="currentColor" fill-opacity="1.000000" fill-rule="nonzero"/>
    </g>

    <g id="trash">
        <path id="Vector"
              d="M21 6L16 6L16 4.33001C15.9765 3.68982 15.7002 3.08506 15.2316 2.6483C14.7629 2.21153 14.1402 1.9784 13.5 2L10.5 2C9.85976 1.9784 9.23706 2.21153 8.76843 2.6483C8.29979 3.08506 8.02345 3.68982 8 4.33001L8 6L3 6C2.73479 6 2.48042 6.10536 2.29289 6.2929C2.10536 6.48043 2 6.73479 2 7C2 7.26522 2.10536 7.51958 2.29289 7.70711C2.48042 7.89465 2.73479 8 3 8L4 8L4 19C4 19.7957 4.31607 20.5587 4.87868 21.1213C5.44128 21.6839 6.20435 22 7 22L17 22C17.7957 22 18.5587 21.6839 19.1213 21.1213C19.6839 20.5587 20 19.7957 20 19L20 8L21 8C21.2652 8 21.5196 7.89465 21.7071 7.70711C21.8946 7.51958 22 7.26522 22 7C22 6.73479 21.8946 6.48043 21.7071 6.2929C21.5196 6.10536 21.2652 6 21 6ZM10 4.33001C10 4.17001 10.21 4 10.5 4L13.5 4C13.79 4 14 4.17001 14 4.33001L14 6L10 6L10 4.33001Z"
              fill="currentColor" fill-opacity="1.000000" fill-rule="nonzero"/>
    </g>
    <g id="trash_outline">
        <path id="Vector"
              d="M21 6L16 6L16 4.33001C15.9765 3.68982 15.7002 3.08506 15.2316 2.6483C14.7629 2.21153 14.1402 1.9784 13.5 2L10.5 2C9.85976 1.9784 9.23706 2.21153 8.76843 2.6483C8.29979 3.08506 8.02345 3.68982 8 4.33001L8 6L3 6C2.73479 6 2.48042 6.10536 2.29289 6.2929C2.10536 6.48043 2 6.73479 2 7C2 7.26522 2.10536 7.51958 2.29289 7.70711C2.48042 7.89465 2.73479 8 3 8L4 8L4 19C4 19.7957 4.31607 20.5587 4.87868 21.1213C5.44128 21.6839 6.20435 22 7 22L17 22C17.7957 22 18.5587 21.6839 19.1213 21.1213C19.6839 20.5587 20 19.7957 20 19L20 8L21 8C21.2652 8 21.5196 7.89465 21.7071 7.70711C21.8946 7.51958 22 7.26522 22 7C22 6.73479 21.8946 6.48043 21.7071 6.2929C21.5196 6.10536 21.2652 6 21 6ZM10 4.33001C10 4.17001 10.21 4 10.5 4L13.5 4C13.79 4 14 4.17001 14 4.33001L14 6L10 6L10 4.33001ZM18 19C18 19.2652 17.8946 19.5196 17.7071 19.7071C17.5196 19.8946 17.2652 20 17 20L7 20C6.73479 20 6.48042 19.8946 6.29289 19.7071C6.10536 19.5196 6 19.2652 6 19L6 8L18 8L18 19Z"
              fill="currentColor" fill-opacity="1.000000" fill-rule="nonzero"/>
    </g>

    <g id="play_circle">
        <path id="Vector" d="M11.5 14.6L14.31 12L11.5 9.39999L11.5 14.6Z" fill="currentColor" fill-opacity="1.000000"
              fill-rule="nonzero"/>
        <path id="Vector"
              d="M12 2C10.0222 2 8.08879 2.58649 6.44431 3.6853C4.7998 4.78412 3.51808 6.3459 2.76122 8.17317C2.00433 10.0004 1.8063 12.0111 2.19215 13.9509C2.578 15.8907 3.53041 17.6725 4.92894 19.0711C6.32747 20.4696 8.1093 21.422 10.0491 21.8079C11.9889 22.1937 13.9996 21.9957 15.8268 21.2388C17.6541 20.4819 19.2159 19.2002 20.3147 17.5557C21.4135 15.9112 22 13.9778 22 12C22 10.6868 21.7413 9.38641 21.2388 8.17317C20.7363 6.95992 19.9997 5.85751 19.0711 4.92892C18.1425 4.00035 17.0401 3.26375 15.8268 2.7612C14.6136 2.25865 13.3132 2 12 2ZM16 13.18L12.36 16.55C12.042 16.8378 11.6289 16.9981 11.2 17C10.962 16.9995 10.7268 16.9483 10.51 16.85C10.2151 16.7307 9.96239 16.5262 9.78426 16.2625C9.60614 15.9989 9.51065 15.6882 9.51001 15.37L9.51001 8.63C9.51065 8.31184 9.60614 8.0011 9.78426 7.73747C9.96239 7.47385 10.2151 7.26932 10.51 7.14999C10.8138 7.0132 11.1512 6.9687 11.4801 7.02203C11.809 7.07538 12.115 7.2242 12.36 7.45L16 10.82C16.1637 10.9699 16.2944 11.1522 16.3838 11.3554C16.4733 11.5585 16.5195 11.778 16.5195 12C16.5195 12.222 16.4733 12.4415 16.3838 12.6446C16.2944 12.8478 16.1637 13.0301 16 13.18Z"
              fill="currentColor" fill-opacity="1.000000" fill-rule="nonzero"/>
    </g>
    <g id="play_circle_outline">
        <path id="Vector"
              d="M12 2C10.0222 2 8.08879 2.58649 6.44431 3.6853C4.7998 4.78412 3.51808 6.3459 2.76122 8.17317C2.00433 10.0004 1.8063 12.0111 2.19215 13.9509C2.578 15.8907 3.53041 17.6725 4.92894 19.0711C6.32747 20.4696 8.1093 21.422 10.0491 21.8079C11.9889 22.1937 13.9996 21.9957 15.8268 21.2388C17.6541 20.4819 19.2159 19.2002 20.3147 17.5557C21.4135 15.9112 22 13.9778 22 12C22 10.6868 21.7413 9.38641 21.2388 8.17317C20.7363 6.95992 19.9997 5.85751 19.0711 4.92892C18.1425 4.00035 17.0401 3.26375 15.8268 2.7612C14.6136 2.25865 13.3132 2 12 2ZM12 20C10.4178 20 8.87103 19.5308 7.55544 18.6518C6.23985 17.7727 5.21446 16.5233 4.60896 15.0615C4.00346 13.5997 3.84505 11.9911 4.15372 10.4393C4.4624 8.88744 5.22433 7.46196 6.34315 6.34314C7.46198 5.22432 8.88744 4.4624 10.4393 4.15372C11.9911 3.84503 13.5997 4.00346 15.0615 4.60896C16.5233 5.21446 17.7727 6.23984 18.6518 7.55544C19.5308 8.87103 20 10.4178 20 12C20 14.1217 19.1572 16.1566 17.6569 17.6569C16.1566 19.1572 14.1217 20 12 20Z"
              fill="currentColor" fill-opacity="1.000000" fill-rule="nonzero"/>
        <path id="Vector"
              d="M12.34 7.45001C12.095 7.2242 11.789 7.07538 11.4601 7.02205C11.1311 6.9687 10.7938 7.0132 10.49 7.15001C10.1951 7.26932 9.94237 7.47385 9.76425 7.73747C9.58612 8.0011 9.49063 8.31184 9.48999 8.63L9.48999 15.37C9.49063 15.6882 9.58612 15.9989 9.76425 16.2625C9.94237 16.5262 10.1951 16.7307 10.49 16.85C10.7068 16.9483 10.942 16.9995 11.18 17C11.6089 16.9981 12.022 16.8378 12.34 16.55L16 13.18C16.1637 13.0301 16.2944 12.8478 16.3838 12.6446C16.4733 12.4415 16.5194 12.222 16.5194 12C16.5194 11.778 16.4733 11.5585 16.3838 11.3554C16.2944 11.1522 16.1637 10.9699 16 10.82L12.34 7.45001ZM11.5 14.6L11.5 9.40001L14.31 12L11.5 14.6Z"
              fill="currentColor" fill-opacity="1.000000" fill-rule="nonzero"/>
    </g>
    <g id="pause_circle">
        <path id="Vector"
              d="M12 2C10.0222 2 8.08879 2.58649 6.44431 3.6853C4.7998 4.78412 3.51808 6.3459 2.76122 8.17317C2.00433 10.0004 1.8063 12.0111 2.19215 13.9509C2.578 15.8907 3.53041 17.6725 4.92894 19.0711C6.32747 20.4696 8.1093 21.422 10.0491 21.8079C11.9889 22.1937 13.9996 21.9957 15.8268 21.2388C17.6541 20.4819 19.2159 19.2002 20.3147 17.5557C21.4135 15.9112 22 13.9778 22 12C22 10.6868 21.7413 9.38641 21.2388 8.17317C20.7363 6.95991 19.9997 5.85752 19.0711 4.92893C18.1425 4.00034 17.0401 3.26375 15.8268 2.76121C14.6136 2.25866 13.3132 2 12 2ZM10 15C10 15.2652 9.89465 15.5196 9.70711 15.7071C9.51958 15.8946 9.26523 16 9 16C8.73479 16 8.48044 15.8946 8.29289 15.7071C8.10536 15.5196 8 15.2652 8 15L8 9C8 8.73479 8.10536 8.48042 8.29289 8.29289C8.48044 8.10536 8.73479 8 9 8C9.26523 8 9.51958 8.10536 9.70711 8.29289C9.89465 8.48042 10 8.73479 10 9L10 15ZM16 15C16 15.2652 15.8947 15.5196 15.7071 15.7071C15.5196 15.8946 15.2652 16 15 16C14.7348 16 14.4804 15.8946 14.2929 15.7071C14.1054 15.5196 14 15.2652 14 15L14 9C14 8.73479 14.1054 8.48042 14.2929 8.29289C14.4804 8.10536 14.7348 8 15 8C15.2652 8 15.5196 8.10536 15.7071 8.29289C15.8947 8.48042 16 8.73479 16 9L16 15Z"
              fill="currentColor" fill-opacity="1.000000" fill-rule="nonzero"/>
    </g>
    <g id="pause_circle_outline">
        <path id="Vector"
              d="M12 2C10.0222 2 8.08879 2.58649 6.44431 3.6853C4.7998 4.78412 3.51808 6.3459 2.76122 8.17317C2.00433 10.0004 1.8063 12.0111 2.19215 13.9509C2.578 15.8907 3.53041 17.6725 4.92894 19.0711C6.32747 20.4696 8.1093 21.422 10.0491 21.8079C11.9889 22.1937 13.9996 21.9957 15.8268 21.2388C17.6541 20.4819 19.2159 19.2002 20.3147 17.5557C21.4135 15.9112 22 13.9778 22 12C22 10.6868 21.7413 9.38641 21.2388 8.17317C20.7363 6.95991 19.9997 5.85752 19.0711 4.92893C18.1425 4.00034 17.0401 3.26375 15.8268 2.76121C14.6136 2.25866 13.3132 2 12 2ZM12 20C10.4178 20 8.87103 19.5308 7.55544 18.6518C6.23985 17.7727 5.21446 16.5233 4.60896 15.0615C4.00346 13.5997 3.84505 11.9911 4.15372 10.4393C4.4624 8.88744 5.22433 7.46196 6.34315 6.34315C7.46198 5.22433 8.88744 4.4624 10.4393 4.15372C11.9911 3.84504 13.5997 4.00346 15.0615 4.60896C16.5233 5.21446 17.7727 6.23985 18.6518 7.55544C19.5308 8.87103 20 10.4178 20 12C20 14.1217 19.1572 16.1566 17.6569 17.6569C16.1566 19.1572 14.1217 20 12 20Z"
              fill="currentColor" fill-opacity="1.000000" fill-rule="nonzero"/>
        <path id="Vector"
              d="M15 8C14.7348 8 14.4804 8.10536 14.2929 8.29289C14.1054 8.48042 14 8.73479 14 9L14 15C14 15.2652 14.1054 15.5196 14.2929 15.7071C14.4804 15.8946 14.7348 16 15 16C15.2652 16 15.5196 15.8946 15.7071 15.7071C15.8946 15.5196 16 15.2652 16 15L16 9C16 8.73479 15.8946 8.48042 15.7071 8.29289C15.5196 8.10536 15.2652 8 15 8Z"
              fill="currentColor" fill-opacity="1.000000" fill-rule="nonzero"/>
        <path id="Vector"
              d="M9 8C8.73479 8 8.48042 8.10536 8.29289 8.29289C8.10536 8.48042 8 8.73479 8 9L8 15C8 15.2652 8.10536 15.5196 8.29289 15.7071C8.48042 15.8946 8.73479 16 9 16C9.26521 16 9.51958 15.8946 9.70711 15.7071C9.89464 15.5196 10 15.2652 10 15L10 9C10 8.73479 9.89464 8.48042 9.70711 8.29289C9.51958 8.10536 9.26521 8 9 8Z"
              fill="currentColor" fill-opacity="1.000000" fill-rule="nonzero"/>
    </g>

    <g id="more_vertical">
        <circle id="Ellipse 106" cx="12.000000" cy="12.000000" r="8.500000"
                stroke="currentColor"
                stroke-opacity="1.000000"
                stroke-width="1.000000"/>
        <path id="Vector"
              d="M13 12C13 12.5523 12.5522 13 12 13C11.4478 13 11 12.5523 11 12C11 11.4477 11.4478 11 12 11C12.5522 11 13 11.4477 13 12Z"
              fill="currentColor" fill-opacity="1.000000" fill-rule="evenodd"/>
        <path id="Vector"
              d="M13 8.5C13 9.05231 12.5522 9.5 12 9.5C11.4478 9.5 11 9.05231 11 8.5C11 7.94769 11.4478 7.5 12 7.5C12.5522 7.5 13 7.94769 13 8.5Z"
              fill="currentColor" fill-opacity="1.000000" fill-rule="evenodd"/>
        <path id="Vector"
              d="M13 15.5C13 16.0523 12.5522 16.5 12 16.5C11.4478 16.5 11 16.0523 11 15.5C11 14.9477 11.4478 14.5 12 14.5C12.5522 14.5 13 14.9477 13 15.5Z"
              fill="currentColor" fill-opacity="1.000000" fill-rule="evenodd"/>
    </g>

    <g id="image">
        <path id="Vector"
              d="M18 3L6 3C5.20435 3 4.44129 3.31607 3.87868 3.87868C3.31607 4.44129 3 5.20435 3 6L3 18C3 18.7957 3.31607 19.5587 3.87868 20.1213C4.44129 20.6839 5.20435 21 6 21L18 21C18.7957 21 19.5587 20.6839 20.1213 20.1213C20.6839 19.5587 21 18.7957 21 18L21 6C21 5.20435 20.6839 4.44129 20.1213 3.87868C19.5587 3.31607 18.7957 3 18 3ZM6 5L18 5C18.2652 5 18.5196 5.10536 18.7071 5.29289C18.8946 5.48043 19 5.73478 19 6L19 14.36L15.8 11.63C15.3042 11.222 14.6821 10.999 14.04 10.999C13.3979 10.999 12.7758 11.222 12.28 11.63L5 17.7L5 6C5 5.73478 5.10536 5.48043 5.29289 5.29289C5.48043 5.10536 5.73478 5 6 5Z"
              fill="currentColor" fill-opacity="1.000000" fill-rule="nonzero"/>
        <path id="Vector"
              d="M9.5 8.5C9.5 9.32843 8.82843 10 8 10C7.17157 10 6.5 9.32843 6.5 8.5C6.5 7.67157 7.17157 7 8 7C8.82843 7 9.5 7.67157 9.5 8.5Z"
              fill="currentColor" fill-opacity="1.000000" fill-rule="evenodd"/>
    </g>
    <g id="image_outline">
        <path id="Vector"
              d="M18 3L6 3C5.20435 3 4.44129 3.31607 3.87868 3.87868C3.31607 4.44129 3 5.20435 3 6L3 18C3 18.7957 3.31607 19.5587 3.87868 20.1213C4.44129 20.6839 5.20435 21 6 21L18 21C18.7957 21 19.5587 20.6839 20.1213 20.1213C20.6839 19.5587 21 18.7957 21 18L21 6C21 5.20435 20.6839 4.44129 20.1213 3.87868C19.5587 3.31607 18.7957 3 18 3ZM6 5L18 5C18.2652 5 18.5196 5.10536 18.7071 5.29289C18.8946 5.48043 19 5.73478 19 6L19 14.36L15.8 11.63C15.3042 11.222 14.6821 10.999 14.04 10.999C13.3979 10.999 12.7758 11.222 12.28 11.63L5 17.7L5 6C5 5.73478 5.10535 5.48043 5.29289 5.29289C5.48043 5.10536 5.73479 5 6 5ZM18 19L6.56 19L13.56 13.16C13.6945 13.0602 13.8575 13.0062 14.025 13.0062C14.1925 13.0062 14.3555 13.0602 14.49 13.16L19 17L19 18C19 18.2652 18.8946 18.5196 18.7071 18.7071C18.5196 18.8946 18.2652 19 18 19Z"
              fill="currentColor" fill-opacity="1.000000" fill-rule="nonzero"/>
        <path id="Vector"
              d="M9.5 8.5C9.5 9.32843 8.82843 10 8 10C7.17157 10 6.5 9.32843 6.5 8.5C6.5 7.67157 7.17157 7 8 7C8.82843 7 9.5 7.67157 9.5 8.5Z"
              fill="currentColor" fill-opacity="1.000000" fill-rule="evenodd"/>
    </g>

    <g id="person">
        <path id="Vector"
              d="M12 11C12.7911 11 13.5645 10.7654 14.2223 10.3259C14.8801 9.88635 15.3928 9.26164 15.6955 8.53074C15.9983 7.79984 16.0775 6.99557 15.9231 6.21964C15.7688 5.44372 15.3878 4.73099 14.8284 4.17158C14.269 3.61217 13.5563 3.2312 12.7804 3.07686C12.0044 2.92252 11.2002 3.00173 10.4693 3.30448C9.73836 3.60723 9.11365 4.11993 8.67412 4.77772C8.23459 5.43552 8 6.20888 8 7C8 8.06087 8.42143 9.07829 9.17157 9.82843C9.92172 10.5786 10.9391 11 12 11Z"
              fill="currentColor" fill-opacity="1.000000" fill-rule="nonzero"/>
        <path id="Vector"
              d="M18 21C18.2652 21 18.5196 20.8946 18.7071 20.7071C18.8946 20.5196 19 20.2652 19 20C19 18.1435 18.2625 16.363 16.9498 15.0503C15.637 13.7375 13.8565 13 12 13C10.1435 13 8.36301 13.7375 7.05025 15.0503C5.7375 16.363 5 18.1435 5 20C5 20.2652 5.10536 20.5196 5.29289 20.7071C5.48042 20.8946 5.73479 21 6 21L18 21Z"
              fill="currentColor" fill-opacity="1.000000" fill-rule="nonzero"/>
    </g>
    <g id="person_outline">
        <path id="Vector"
              d="M12 11C12.7911 11 13.5645 10.7654 14.2223 10.3259C14.8801 9.88635 15.3928 9.26164 15.6955 8.53074C15.9983 7.79984 16.0775 6.99557 15.9231 6.21964C15.7688 5.44372 15.3878 4.73099 14.8284 4.17158C14.269 3.61217 13.5563 3.2312 12.7804 3.07686C12.0044 2.92252 11.2002 3.00173 10.4693 3.30448C9.73836 3.60723 9.11365 4.11993 8.67412 4.77772C8.23459 5.43552 8 6.20888 8 7C8 8.06087 8.42143 9.07829 9.17157 9.82843C9.92172 10.5786 10.9391 11 12 11ZM12 5C12.3956 5 12.7822 5.1173 13.1111 5.33706C13.44 5.55682 13.6964 5.86918 13.8478 6.23463C13.9991 6.60009 14.0387 7.00222 13.9616 7.39018C13.8844 7.77814 13.6939 8.13451 13.4142 8.41422C13.1345 8.69392 12.7781 8.8844 12.3902 8.96157C12.0022 9.03874 11.6001 8.99914 11.2346 8.84776C10.8692 8.69639 10.5568 8.44004 10.3371 8.11115C10.1173 7.78224 10 7.39556 10 7C10 6.46957 10.2107 5.96086 10.5858 5.58578C10.9609 5.21072 11.4696 5 12 5Z"
              fill="currentColor" fill-opacity="1.000000" fill-rule="nonzero"/>
        <path id="Vector"
              d="M12 13C10.1435 13 8.36301 13.7375 7.05025 15.0503C5.7375 16.363 5 18.1435 5 20C5 20.2652 5.10536 20.5196 5.29289 20.7071C5.48042 20.8946 5.73479 21 6 21C6.26521 21 6.51958 20.8946 6.70711 20.7071C6.89464 20.5196 7 20.2652 7 20C7 18.6739 7.52678 17.4021 8.46446 16.4645C9.40215 15.5268 10.6739 15 12 15C13.3261 15 14.5979 15.5268 15.5355 16.4645C16.4732 17.4021 17 18.6739 17 20C17 20.2652 17.1054 20.5196 17.2929 20.7071C17.4804 20.8946 17.7348 21 18 21C18.2652 21 18.5196 20.8946 18.7071 20.7071C18.8946 20.5196 19 20.2652 19 20C19 18.1435 18.2625 16.363 16.9498 15.0503C15.637 13.7375 13.8565 13 12 13Z"
              fill="currentColor" fill-opacity="1.000000" fill-rule="nonzero"/>
    </g>

    <g id="star">
        <path id="Vector"
              d="M17.56 21C17.4001 21.0006 17.2423 20.9629 17.1 20.89L12 18.22L6.90001 20.89C6.7344 20.9771 6.54768 21.0159 6.36108 21.0022C6.17448 20.9884 5.99548 20.9226 5.84444 20.8122C5.69339 20.7018 5.57635 20.5512 5.50662 20.3775C5.4369 20.2039 5.41728 20.0142 5.45001 19.83L6.45 14.2L2.33001 10.2C2.20147 10.0717 2.11028 9.91086 2.06623 9.73468C2.02219 9.5585 2.02695 9.37366 2.08001 9.2C2.13797 9.02226 2.24458 8.86435 2.38776 8.74414C2.53093 8.62395 2.70493 8.5463 2.89001 8.51999L8.59001 7.68999L11.1 2.55999C11.1819 2.39092 11.3097 2.24833 11.4689 2.14857C11.6281 2.0488 11.8121 1.99588 12 1.99588C12.1879 1.99588 12.3719 2.0488 12.5311 2.14857C12.6903 2.24833 12.8181 2.39092 12.9 2.55999L15.44 7.67999L21.14 8.50999C21.3251 8.5363 21.4991 8.61395 21.6423 8.73415C21.7854 8.85434 21.892 9.01227 21.95 9.18999C22.0031 9.36366 22.0078 9.54851 21.9638 9.72469C21.9197 9.90086 21.8286 10.0617 21.7 10.19L17.58 14.19L18.58 19.82C18.6157 20.0075 18.597 20.2012 18.5261 20.3784C18.4553 20.5556 18.3352 20.7088 18.18 20.82C17.9989 20.9469 17.7809 21.0102 17.56 21Z"
              fill="currentColor" fill-opacity="1.000000" fill-rule="nonzero"/>
    </g>
    <g id="star_outline">
        <path id="Vector"
              d="M17.56 21C17.4001 21.0006 17.2423 20.9629 17.1 20.89L12 18.22L6.90001 20.89C6.7344 20.9771 6.54768 21.0159 6.36108 21.0022C6.17448 20.9884 5.99548 20.9226 5.84444 20.8122C5.69339 20.7018 5.57635 20.5512 5.50662 20.3775C5.4369 20.2039 5.41728 20.0142 5.45 19.83L6.45 14.2L2.33001 10.2C2.20146 10.0717 2.11028 9.91086 2.06623 9.73468C2.02219 9.5585 2.02695 9.37366 2.08001 9.2C2.13797 9.02226 2.24458 8.86435 2.38776 8.74414C2.53093 8.62395 2.70493 8.5463 2.89001 8.51999L8.59 7.68999L11.1 2.55999C11.1819 2.39092 11.3097 2.24833 11.4689 2.14857C11.6281 2.0488 11.8121 1.99588 12 1.99588C12.1879 1.99588 12.3719 2.0488 12.5311 2.14857C12.6903 2.24833 12.8181 2.39092 12.9 2.55999L15.44 7.67999L21.14 8.50999C21.3251 8.5363 21.4991 8.61395 21.6423 8.73415C21.7854 8.85434 21.892 9.01227 21.95 9.18999C22.0031 9.36366 22.0078 9.54851 21.9638 9.72469C21.9197 9.90086 21.8286 10.0617 21.7 10.19L17.58 14.19L18.58 19.82C18.6157 20.0075 18.597 20.2012 18.5261 20.3784C18.4553 20.5556 18.3352 20.7088 18.18 20.82C17.9989 20.9469 17.7809 21.0102 17.56 21ZM12 16.1C12.1603 16.0959 12.3189 16.1339 12.46 16.21L16.23 18.21L15.51 14C15.4821 13.8392 15.4939 13.6741 15.5444 13.519C15.595 13.3638 15.6827 13.2234 15.8 13.11L18.8 10.18L14.6 9.56C14.446 9.52898 14.3014 9.46213 14.1781 9.36482C14.0547 9.26753 13.956 9.14255 13.89 8.99998L12 5.24999L10.11 8.99998C10.0377 9.14369 9.9317 9.26782 9.80113 9.36183C9.67056 9.45584 9.51924 9.51695 9.36001 9.53999L5.16 10.16L8.16 13.09C8.27728 13.2034 8.36502 13.3438 8.41557 13.499C8.46612 13.6541 8.47794 13.8192 8.45 13.98L7.73 18.14L11.5 16.14C11.6598 16.0806 11.8329 16.0668 12 16.1Z"
              fill="currentColor" fill-opacity="1.000000" fill-rule="nonzero"/>
    </g>

    <g id="radio_button_checked">
        <path id="Vector"
              d="M12 7C9.24001 7 7 9.24 7 12C7 14.76 9.24001 17 12 17C14.76 17 17 14.76 17 12C17 9.24 14.76 7 12 7ZM12 2C6.48 2 2 6.48 2 12C2 17.52 6.48 22 12 22C17.52 22 22 17.52 22 12C22 6.48 17.52 2 12 2ZM12 20C7.58 20 4 16.42 4 12C4 7.58 7.58 4 12 4C16.42 4 20 7.58 20 12C20 16.42 16.42 20 12 20Z"
              fill="currentColor" fill-opacity="1.000000" fill-rule="nonzero"/>
   </g>
    <g id="radio_button_unchecked">
        <path id="Vector"
              d="M12 2C6.48 2 2 6.48 2 12C2 17.52 6.48 22 12 22C17.52 22 22 17.52 22 12C22 6.48 17.52 2 12 2ZM12 20C7.58 20 4 16.42 4 12C4 7.58 7.58 4 12 4C16.42 4 20 7.58 20 12C20 16.42 16.42 20 12 20Z"
              fill="currentColor" fill-opacity="1.000000" fill-rule="nonzero"/>
    </g>
</svg>